<mxfile modified="2023-09-13T03:56:13.860Z" host="app.diagrams.net" agent="Mozilla/5.0 (Windows NT 10.0; Win64; x64) AppleWebKit/537.36 (KHTML, like Gecko) Chrome/115.0.0.0 Safari/537.36" etag="eFKv9OkyXp1X7ujphNeS" version="21.7.4" type="github">
  <diagram id="l8hXMBHkgcEJcSW0mbfh" name="Page-1">
    <mxGraphModel dx="1432" dy="830" grid="1" gridSize="10" guides="1" tooltips="1" connect="1" arrows="1" fold="1" page="1" pageScale="1" pageWidth="1169" pageHeight="827" math="0" shadow="0">
      <root>
        <mxCell id="0" />
        <mxCell id="1" parent="0" />
        <mxCell id="9Pj_rUCR29dWIUh4K1ZW-25" style="edgeStyle=orthogonalEdgeStyle;rounded=0;orthogonalLoop=1;jettySize=auto;html=1;entryX=0;entryY=0.5;entryDx=0;entryDy=0;" edge="1" parent="1" source="8--HhbSZYtI3ddgJnD71-16" target="9Pj_rUCR29dWIUh4K1ZW-6">
          <mxGeometry relative="1" as="geometry" />
        </mxCell>
        <object label="Attacker3" Attacker1="" id="8--HhbSZYtI3ddgJnD71-16">
          <mxCell style="shape=image;verticalLabelPosition=bottom;verticalAlign=top;imageAspect=0;aspect=fixed;image=data:image/svg+xml,PHN2ZyB4bWxucz0iaHR0cDovL3d3dy53My5vcmcvMjAwMC9zdmciIHZlcnNpb249IjEiIHZpZXdCb3g9IjAgMCA0OCA0OCIgZW5hYmxlLWJhY2tncm91bmQ9Im5ldyAwIDAgNDggNDgiPiYjeGE7ICAgIDxwb2x5Z29uIGZpbGw9IiNGRjk4MDAiIHBvaW50cz0iMjQsMzcgMTksMzEgMTksMjUgMjksMjUgMjksMzEiLz4mI3hhOyAgICA8ZyBmaWxsPSIjRkZBNzI2Ij4mI3hhOyAgICAgICAgPGNpcmNsZSBjeD0iMzMiIGN5PSIxOSIgcj0iMiIvPiYjeGE7ICAgICAgICA8Y2lyY2xlIGN4PSIxNSIgY3k9IjE5IiByPSIyIi8+JiN4YTsgICAgPC9nPiYjeGE7ICAgIDxwYXRoIGZpbGw9IiNGRkI3NEQiIGQ9Ik0zMywxM2MwLTcuNi0xOC01LTE4LDBjMCwxLjEsMCw1LjksMCw3YzAsNSw0LDksOSw5czktNCw5LTlDMzMsMTguOSwzMywxNC4xLDMzLDEzeiIvPiYjeGE7ICAgIDxwYXRoIGZpbGw9IiM0MjQyNDIiIGQ9Ik0yNCw0Yy02LjEsMC0xMCw0LjktMTAsMTFjMCwwLjgsMCwyLjMsMCwyLjNsMiwxLjd2LTVsMTItNGw0LDR2NWwyLTEuN2MwLDAsMC0xLjUsMC0yLjNjMC00LTEtOC02LTlsLTEtMiBIMjR6Ii8+JiN4YTsgICAgPGcgZmlsbD0iIzc4NDcxOSI+JiN4YTsgICAgICAgIDxjaXJjbGUgY3g9IjI4IiBjeT0iMTkiIHI9IjEiLz4mI3hhOyAgICAgICAgPGNpcmNsZSBjeD0iMjAiIGN5PSIxOSIgcj0iMSIvPiYjeGE7ICAgIDwvZz4mI3hhOyAgICA8cG9seWdvbiBmaWxsPSIjZmZmIiBwb2ludHM9IjI0LDQzIDE5LDMxIDI0LDMyIDI5LDMxIi8+JiN4YTsgICAgPHBvbHlnb24gZmlsbD0iI0QzMkYyRiIgcG9pbnRzPSIyMywzNSAyMi4zLDM5LjUgMjQsNDMuNSAyNS43LDM5LjUgMjUsMzUgMjYsMzQgMjQsMzIgMjIsMzQiLz4mI3hhOyAgICA8cGF0aCBmaWxsPSIjNTQ2RTdBIiBkPSJNMjksMzFMMjksMzFsLTUsMTJsLTUtMTJjMCwwLTExLDItMTEsMTNoMzJDNDAsMzMsMjksMzEsMjksMzF6Ii8+JiN4YTs8L3N2Zz4=;labelBackgroundColor=#ffffff;" parent="1" vertex="1">
            <mxGeometry x="278.5" y="380" width="96" height="96" as="geometry" />
          </mxCell>
        </object>
        <mxCell id="9Pj_rUCR29dWIUh4K1ZW-22" value="" style="edgeStyle=orthogonalEdgeStyle;rounded=0;orthogonalLoop=1;jettySize=auto;html=1;entryX=0;entryY=0.5;entryDx=0;entryDy=0;" edge="1" parent="1" source="8--HhbSZYtI3ddgJnD71-17" target="9Pj_rUCR29dWIUh4K1ZW-6">
          <mxGeometry relative="1" as="geometry">
            <mxPoint x="457" y="151.5" as="targetPoint" />
          </mxGeometry>
        </mxCell>
        <mxCell id="8--HhbSZYtI3ddgJnD71-17" value="Attacker1(Ourselves)" style="shape=image;verticalLabelPosition=bottom;verticalAlign=top;imageAspect=0;aspect=fixed;image=data:image/svg+xml,PHN2ZyB4bWxucz0iaHR0cDovL3d3dy53My5vcmcvMjAwMC9zdmciIHZlcnNpb249IjEiIHZpZXdCb3g9IjAgMCA0OCA0OCIgZW5hYmxlLWJhY2tncm91bmQ9Im5ldyAwIDAgNDggNDgiPiYjeGE7ICAgIDxwb2x5Z29uIGZpbGw9IiNGRjk4MDAiIHBvaW50cz0iMjQsMzcgMTksMzEgMTksMjUgMjksMjUgMjksMzEiLz4mI3hhOyAgICA8ZyBmaWxsPSIjRkZBNzI2Ij4mI3hhOyAgICAgICAgPGNpcmNsZSBjeD0iMzMiIGN5PSIxOSIgcj0iMiIvPiYjeGE7ICAgICAgICA8Y2lyY2xlIGN4PSIxNSIgY3k9IjE5IiByPSIyIi8+JiN4YTsgICAgPC9nPiYjeGE7ICAgIDxwYXRoIGZpbGw9IiNGRkI3NEQiIGQ9Ik0zMywxM2MwLTcuNi0xOC01LTE4LDBjMCwxLjEsMCw1LjksMCw3YzAsNSw0LDksOSw5czktNCw5LTlDMzMsMTguOSwzMywxNC4xLDMzLDEzeiIvPiYjeGE7ICAgIDxwYXRoIGZpbGw9IiM0MjQyNDIiIGQ9Ik0yNCw0Yy02LjEsMC0xMCw0LjktMTAsMTFjMCwwLjgsMCwyLjMsMCwyLjNsMiwxLjd2LTVsMTItNGw0LDR2NWwyLTEuN2MwLDAsMC0xLjUsMC0yLjNjMC00LTEtOC02LTlsLTEtMiBIMjR6Ii8+JiN4YTsgICAgPGcgZmlsbD0iIzc4NDcxOSI+JiN4YTsgICAgICAgIDxjaXJjbGUgY3g9IjI4IiBjeT0iMTkiIHI9IjEiLz4mI3hhOyAgICAgICAgPGNpcmNsZSBjeD0iMjAiIGN5PSIxOSIgcj0iMSIvPiYjeGE7ICAgIDwvZz4mI3hhOyAgICA8cG9seWdvbiBmaWxsPSIjZmZmIiBwb2ludHM9IjI0LDQzIDE5LDMxIDI0LDMyIDI5LDMxIi8+JiN4YTsgICAgPHBvbHlnb24gZmlsbD0iI0QzMkYyRiIgcG9pbnRzPSIyMywzNSAyMi4zLDM5LjUgMjQsNDMuNSAyNS43LDM5LjUgMjUsMzUgMjYsMzQgMjQsMzIgMjIsMzQiLz4mI3hhOyAgICA8cGF0aCBmaWxsPSIjNTQ2RTdBIiBkPSJNMjksMzFMMjksMzFsLTUsMTJsLTUtMTJjMCwwLTExLDItMTEsMTNoMzJDNDAsMzMsMjksMzEsMjksMzF6Ii8+JiN4YTs8L3N2Zz4=;labelBackgroundColor=#ffffff;" parent="1" vertex="1">
          <mxGeometry x="280" y="103" width="97" height="97" as="geometry" />
        </mxCell>
        <mxCell id="9Pj_rUCR29dWIUh4K1ZW-23" style="edgeStyle=orthogonalEdgeStyle;rounded=0;orthogonalLoop=1;jettySize=auto;html=1;entryX=0;entryY=0.5;entryDx=0;entryDy=0;" edge="1" parent="1" source="8--HhbSZYtI3ddgJnD71-18" target="9Pj_rUCR29dWIUh4K1ZW-6">
          <mxGeometry relative="1" as="geometry">
            <mxPoint x="530" y="320" as="targetPoint" />
            <Array as="points">
              <mxPoint x="480" y="290" />
              <mxPoint x="480" y="290" />
            </Array>
          </mxGeometry>
        </mxCell>
        <mxCell id="8--HhbSZYtI3ddgJnD71-18" value="Attacker2" style="shape=image;verticalLabelPosition=bottom;verticalAlign=top;imageAspect=0;aspect=fixed;image=data:image/svg+xml,PHN2ZyB4bWxucz0iaHR0cDovL3d3dy53My5vcmcvMjAwMC9zdmciIHZlcnNpb249IjEiIHZpZXdCb3g9IjAgMCA0OCA0OCIgZW5hYmxlLWJhY2tncm91bmQ9Im5ldyAwIDAgNDggNDgiPiYjeGE7ICAgIDxwb2x5Z29uIGZpbGw9IiNGRjk4MDAiIHBvaW50cz0iMjQsMzcgMTksMzEgMTksMjUgMjksMjUgMjksMzEiLz4mI3hhOyAgICA8ZyBmaWxsPSIjRkZBNzI2Ij4mI3hhOyAgICAgICAgPGNpcmNsZSBjeD0iMzMiIGN5PSIxOSIgcj0iMiIvPiYjeGE7ICAgICAgICA8Y2lyY2xlIGN4PSIxNSIgY3k9IjE5IiByPSIyIi8+JiN4YTsgICAgPC9nPiYjeGE7ICAgIDxwYXRoIGZpbGw9IiNGRkI3NEQiIGQ9Ik0zMywxM2MwLTcuNi0xOC01LTE4LDBjMCwxLjEsMCw1LjksMCw3YzAsNSw0LDksOSw5czktNCw5LTlDMzMsMTguOSwzMywxNC4xLDMzLDEzeiIvPiYjeGE7ICAgIDxwYXRoIGZpbGw9IiM0MjQyNDIiIGQ9Ik0yNCw0Yy02LjEsMC0xMCw0LjktMTAsMTFjMCwwLjgsMCwyLjMsMCwyLjNsMiwxLjd2LTVsMTItNGw0LDR2NWwyLTEuN2MwLDAsMC0xLjUsMC0yLjNjMC00LTEtOC02LTlsLTEtMiBIMjR6Ii8+JiN4YTsgICAgPGcgZmlsbD0iIzc4NDcxOSI+JiN4YTsgICAgICAgIDxjaXJjbGUgY3g9IjI4IiBjeT0iMTkiIHI9IjEiLz4mI3hhOyAgICAgICAgPGNpcmNsZSBjeD0iMjAiIGN5PSIxOSIgcj0iMSIvPiYjeGE7ICAgIDwvZz4mI3hhOyAgICA8cG9seWdvbiBmaWxsPSIjZmZmIiBwb2ludHM9IjI0LDQzIDE5LDMxIDI0LDMyIDI5LDMxIi8+JiN4YTsgICAgPHBvbHlnb24gZmlsbD0iI0QzMkYyRiIgcG9pbnRzPSIyMywzNSAyMi4zLDM5LjUgMjQsNDMuNSAyNS43LDM5LjUgMjUsMzUgMjYsMzQgMjQsMzIgMjIsMzQiLz4mI3hhOyAgICA8cGF0aCBmaWxsPSIjNTQ2RTdBIiBkPSJNMjksMzFMMjksMzFsLTUsMTJsLTUtMTJjMCwwLTExLDItMTEsMTNoMzJDNDAsMzMsMjksMzEsMjksMzF6Ii8+JiN4YTs8L3N2Zz4=;labelBackgroundColor=#ffffff;" parent="1" vertex="1">
          <mxGeometry x="278.5" y="240" width="100" height="100" as="geometry" />
        </mxCell>
        <mxCell id="9Pj_rUCR29dWIUh4K1ZW-57" style="edgeStyle=orthogonalEdgeStyle;rounded=0;orthogonalLoop=1;jettySize=auto;html=1;exitX=1;exitY=0.5;exitDx=0;exitDy=0;entryX=0;entryY=0.5;entryDx=0;entryDy=0;" edge="1" parent="1" source="9Pj_rUCR29dWIUh4K1ZW-6" target="9Pj_rUCR29dWIUh4K1ZW-26">
          <mxGeometry relative="1" as="geometry" />
        </mxCell>
        <mxCell id="9Pj_rUCR29dWIUh4K1ZW-58" style="edgeStyle=orthogonalEdgeStyle;rounded=0;orthogonalLoop=1;jettySize=auto;html=1;exitX=1;exitY=0.5;exitDx=0;exitDy=0;" edge="1" parent="1" source="9Pj_rUCR29dWIUh4K1ZW-6" target="9Pj_rUCR29dWIUh4K1ZW-27">
          <mxGeometry relative="1" as="geometry" />
        </mxCell>
        <mxCell id="9Pj_rUCR29dWIUh4K1ZW-59" style="edgeStyle=orthogonalEdgeStyle;rounded=0;orthogonalLoop=1;jettySize=auto;html=1;exitX=1;exitY=0.5;exitDx=0;exitDy=0;entryX=0;entryY=0.5;entryDx=0;entryDy=0;" edge="1" parent="1" source="9Pj_rUCR29dWIUh4K1ZW-6" target="9Pj_rUCR29dWIUh4K1ZW-28">
          <mxGeometry relative="1" as="geometry" />
        </mxCell>
        <mxCell id="9Pj_rUCR29dWIUh4K1ZW-60" style="edgeStyle=orthogonalEdgeStyle;rounded=0;orthogonalLoop=1;jettySize=auto;html=1;exitX=1;exitY=0.5;exitDx=0;exitDy=0;entryX=0;entryY=0.5;entryDx=0;entryDy=0;" edge="1" parent="1" source="9Pj_rUCR29dWIUh4K1ZW-6" target="9Pj_rUCR29dWIUh4K1ZW-29">
          <mxGeometry relative="1" as="geometry" />
        </mxCell>
        <mxCell id="9Pj_rUCR29dWIUh4K1ZW-61" style="edgeStyle=orthogonalEdgeStyle;rounded=0;orthogonalLoop=1;jettySize=auto;html=1;exitX=1;exitY=0.5;exitDx=0;exitDy=0;entryX=0;entryY=0.5;entryDx=0;entryDy=0;" edge="1" parent="1" source="9Pj_rUCR29dWIUh4K1ZW-6" target="9Pj_rUCR29dWIUh4K1ZW-30">
          <mxGeometry relative="1" as="geometry" />
        </mxCell>
        <mxCell id="9Pj_rUCR29dWIUh4K1ZW-62" style="edgeStyle=orthogonalEdgeStyle;rounded=0;orthogonalLoop=1;jettySize=auto;html=1;exitX=1;exitY=0.5;exitDx=0;exitDy=0;entryX=0;entryY=0.5;entryDx=0;entryDy=0;" edge="1" parent="1" source="9Pj_rUCR29dWIUh4K1ZW-6" target="9Pj_rUCR29dWIUh4K1ZW-31">
          <mxGeometry relative="1" as="geometry" />
        </mxCell>
        <mxCell id="9Pj_rUCR29dWIUh4K1ZW-6" value="Private Server" style="shape=image;verticalLabelPosition=bottom;verticalAlign=top;imageAspect=0;aspect=fixed;image=data:image/svg+xml,PHN2ZyB4bWxucz0iaHR0cDovL3d3dy53My5vcmcvMjAwMC9zdmciIHZlcnNpb249IjEiIHZpZXdCb3g9IjAgMCA0OCA0OCIgZW5hYmxlLWJhY2tncm91bmQ9Im5ldyAwIDAgNDggNDgiPiYjeGE7ICAgIDxnIGZpbGw9IiNEMUM0RTkiPiYjeGE7ICAgICAgICA8cGF0aCBkPSJNMzgsN0gxMEM4LjksNyw4LDcuOSw4LDl2NmMwLDEuMSwwLjksMiwyLDJoMjhjMS4xLDAsMi0wLjksMi0yVjlDNDAsNy45LDM5LjEsNywzOCw3eiIvPiYjeGE7ICAgICAgICA8cGF0aCBkPSJNMzgsMTlIMTBjLTEuMSwwLTIsMC45LTIsMnY2YzAsMS4xLDAuOSwyLDIsMmgyOGMxLjEsMCwyLTAuOSwyLTJ2LTZDNDAsMTkuOSwzOS4xLDE5LDM4LDE5eiIvPiYjeGE7ICAgICAgICA8cGF0aCBkPSJNMzgsMzFIMTBjLTEuMSwwLTIsMC45LTIsMnY2YzAsMS4xLDAuOSwyLDIsMmgyOGMxLjEsMCwyLTAuOSwyLTJ2LTZDNDAsMzEuOSwzOS4xLDMxLDM4LDMxeiIvPiYjeGE7ICAgIDwvZz4mI3hhOyAgICA8Y2lyY2xlIGZpbGw9IiM0M0EwNDciIGN4PSIzOCIgY3k9IjM4IiByPSIxMCIvPiYjeGE7ICAgIDxwb2x5Z29uIGZpbGw9IiNEQ0VEQzgiIHBvaW50cz0iNDIuNSwzMy4zIDM2LjgsMzkgMzQuMSwzNi4zIDMyLDM4LjUgMzYuOCw0My4zIDQ0LjYsMzUuNSIvPiYjeGE7PC9zdmc+" vertex="1" parent="1">
          <mxGeometry x="585" y="215" width="150" height="150" as="geometry" />
        </mxCell>
        <mxCell id="9Pj_rUCR29dWIUh4K1ZW-10" value="" style="edgeStyle=orthogonalEdgeStyle;rounded=0;orthogonalLoop=1;jettySize=auto;html=1;" edge="1" parent="1" source="9Pj_rUCR29dWIUh4K1ZW-7" target="8--HhbSZYtI3ddgJnD71-17">
          <mxGeometry relative="1" as="geometry" />
        </mxCell>
        <mxCell id="9Pj_rUCR29dWIUh4K1ZW-7" value="Host1(Ourselves)" style="shape=image;verticalLabelPosition=bottom;verticalAlign=top;imageAspect=0;aspect=fixed;image=data:image/svg+xml,PHN2ZyB4bWxucz0iaHR0cDovL3d3dy53My5vcmcvMjAwMC9zdmciIHZlcnNpb249IjEiIHZpZXdCb3g9IjAgMCA0OCA0OCIgZW5hYmxlLWJhY2tncm91bmQ9Im5ldyAwIDAgNDggNDgiPiYjeGE7ICAgIDxwb2x5Z29uIGZpbGw9IiNGRjk4MDAiIHBvaW50cz0iMjQsMzcgMTksMzEgMTksMjUgMjksMjUgMjksMzEiLz4mI3hhOyAgICA8ZyBmaWxsPSIjRkZBNzI2Ij4mI3hhOyAgICAgICAgPGNpcmNsZSBjeD0iMzMiIGN5PSIxOSIgcj0iMiIvPiYjeGE7ICAgICAgICA8Y2lyY2xlIGN4PSIxNSIgY3k9IjE5IiByPSIyIi8+JiN4YTsgICAgPC9nPiYjeGE7ICAgIDxwYXRoIGZpbGw9IiNGRkI3NEQiIGQ9Ik0zMywxM2MwLTcuNi0xOC01LTE4LDBjMCwxLjEsMCw1LjksMCw3YzAsNSw0LDksOSw5czktNCw5LTlDMzMsMTguOSwzMywxNC4xLDMzLDEzeiIvPiYjeGE7ICAgIDxwYXRoIGZpbGw9IiM0MjQyNDIiIGQ9Ik0yNCw0Yy02LjEsMC0xMCw0LjktMTAsMTFjMCwwLjgsMCwyLjMsMCwyLjNsMiwxLjd2LTVsMTItNGw0LDR2NWwyLTEuN2MwLDAsMC0xLjUsMC0yLjNjMC00LTEtOC02LTlsLTEtMiBIMjR6Ii8+JiN4YTsgICAgPGcgZmlsbD0iIzc4NDcxOSI+JiN4YTsgICAgICAgIDxjaXJjbGUgY3g9IjI4IiBjeT0iMTkiIHI9IjEiLz4mI3hhOyAgICAgICAgPGNpcmNsZSBjeD0iMjAiIGN5PSIxOSIgcj0iMSIvPiYjeGE7ICAgIDwvZz4mI3hhOyAgICA8cG9seWdvbiBmaWxsPSIjZmZmIiBwb2ludHM9IjI0LDQzIDE5LDMxIDI0LDMyIDI5LDMxIi8+JiN4YTsgICAgPHBvbHlnb24gZmlsbD0iI0QzMkYyRiIgcG9pbnRzPSIyMywzNSAyMi4zLDM5LjUgMjQsNDMuNSAyNS43LDM5LjUgMjUsMzUgMjYsMzQgMjQsMzIgMjIsMzQiLz4mI3hhOyAgICA8cGF0aCBmaWxsPSIjNTQ2RTdBIiBkPSJNMjksMzFMMjksMzFsLTUsMTJsLTUtMTJjMCwwLTExLDItMTEsMTNoMzJDNDAsMzMsMjksMzEsMjksMzF6Ii8+JiN4YTs8L3N2Zz4=;labelBackgroundColor=#ffffff;" vertex="1" parent="1">
          <mxGeometry x="110" y="105.5" width="92" height="92" as="geometry" />
        </mxCell>
        <mxCell id="9Pj_rUCR29dWIUh4K1ZW-11" value="" style="edgeStyle=orthogonalEdgeStyle;rounded=0;orthogonalLoop=1;jettySize=auto;html=1;" edge="1" parent="1" source="9Pj_rUCR29dWIUh4K1ZW-8" target="8--HhbSZYtI3ddgJnD71-18">
          <mxGeometry relative="1" as="geometry" />
        </mxCell>
        <mxCell id="9Pj_rUCR29dWIUh4K1ZW-8" value="Host2" style="shape=image;verticalLabelPosition=bottom;verticalAlign=top;imageAspect=0;aspect=fixed;image=data:image/svg+xml,PHN2ZyB4bWxucz0iaHR0cDovL3d3dy53My5vcmcvMjAwMC9zdmciIHZlcnNpb249IjEiIHZpZXdCb3g9IjAgMCA0OCA0OCIgZW5hYmxlLWJhY2tncm91bmQ9Im5ldyAwIDAgNDggNDgiPiYjeGE7ICAgIDxwb2x5Z29uIGZpbGw9IiNGRjk4MDAiIHBvaW50cz0iMjQsMzcgMTksMzEgMTksMjUgMjksMjUgMjksMzEiLz4mI3hhOyAgICA8ZyBmaWxsPSIjRkZBNzI2Ij4mI3hhOyAgICAgICAgPGNpcmNsZSBjeD0iMzMiIGN5PSIxOSIgcj0iMiIvPiYjeGE7ICAgICAgICA8Y2lyY2xlIGN4PSIxNSIgY3k9IjE5IiByPSIyIi8+JiN4YTsgICAgPC9nPiYjeGE7ICAgIDxwYXRoIGZpbGw9IiNGRkI3NEQiIGQ9Ik0zMywxM2MwLTcuNi0xOC01LTE4LDBjMCwxLjEsMCw1LjksMCw3YzAsNSw0LDksOSw5czktNCw5LTlDMzMsMTguOSwzMywxNC4xLDMzLDEzeiIvPiYjeGE7ICAgIDxwYXRoIGZpbGw9IiM0MjQyNDIiIGQ9Ik0yNCw0Yy02LjEsMC0xMCw0LjktMTAsMTFjMCwwLjgsMCwyLjMsMCwyLjNsMiwxLjd2LTVsMTItNGw0LDR2NWwyLTEuN2MwLDAsMC0xLjUsMC0yLjNjMC00LTEtOC02LTlsLTEtMiBIMjR6Ii8+JiN4YTsgICAgPGcgZmlsbD0iIzc4NDcxOSI+JiN4YTsgICAgICAgIDxjaXJjbGUgY3g9IjI4IiBjeT0iMTkiIHI9IjEiLz4mI3hhOyAgICAgICAgPGNpcmNsZSBjeD0iMjAiIGN5PSIxOSIgcj0iMSIvPiYjeGE7ICAgIDwvZz4mI3hhOyAgICA8cG9seWdvbiBmaWxsPSIjZmZmIiBwb2ludHM9IjI0LDQzIDE5LDMxIDI0LDMyIDI5LDMxIi8+JiN4YTsgICAgPHBvbHlnb24gZmlsbD0iI0QzMkYyRiIgcG9pbnRzPSIyMywzNSAyMi4zLDM5LjUgMjQsNDMuNSAyNS43LDM5LjUgMjUsMzUgMjYsMzQgMjQsMzIgMjIsMzQiLz4mI3hhOyAgICA8cGF0aCBmaWxsPSIjNTQ2RTdBIiBkPSJNMjksMzFMMjksMzFsLTUsMTJsLTUtMTJjMCwwLTExLDItMTEsMTNoMzJDNDAsMzMsMjksMzEsMjksMzF6Ii8+JiN4YTs8L3N2Zz4=;labelBackgroundColor=#ffffff;" vertex="1" parent="1">
          <mxGeometry x="106" y="240" width="100" height="100" as="geometry" />
        </mxCell>
        <mxCell id="9Pj_rUCR29dWIUh4K1ZW-12" value="" style="edgeStyle=orthogonalEdgeStyle;rounded=0;orthogonalLoop=1;jettySize=auto;html=1;" edge="1" parent="1" source="9Pj_rUCR29dWIUh4K1ZW-9" target="8--HhbSZYtI3ddgJnD71-16">
          <mxGeometry relative="1" as="geometry" />
        </mxCell>
        <object label="Host3" Attacker1="" id="9Pj_rUCR29dWIUh4K1ZW-9">
          <mxCell style="shape=image;verticalLabelPosition=bottom;verticalAlign=top;imageAspect=0;aspect=fixed;image=data:image/svg+xml,PHN2ZyB4bWxucz0iaHR0cDovL3d3dy53My5vcmcvMjAwMC9zdmciIHZlcnNpb249IjEiIHZpZXdCb3g9IjAgMCA0OCA0OCIgZW5hYmxlLWJhY2tncm91bmQ9Im5ldyAwIDAgNDggNDgiPiYjeGE7ICAgIDxwb2x5Z29uIGZpbGw9IiNGRjk4MDAiIHBvaW50cz0iMjQsMzcgMTksMzEgMTksMjUgMjksMjUgMjksMzEiLz4mI3hhOyAgICA8ZyBmaWxsPSIjRkZBNzI2Ij4mI3hhOyAgICAgICAgPGNpcmNsZSBjeD0iMzMiIGN5PSIxOSIgcj0iMiIvPiYjeGE7ICAgICAgICA8Y2lyY2xlIGN4PSIxNSIgY3k9IjE5IiByPSIyIi8+JiN4YTsgICAgPC9nPiYjeGE7ICAgIDxwYXRoIGZpbGw9IiNGRkI3NEQiIGQ9Ik0zMywxM2MwLTcuNi0xOC01LTE4LDBjMCwxLjEsMCw1LjksMCw3YzAsNSw0LDksOSw5czktNCw5LTlDMzMsMTguOSwzMywxNC4xLDMzLDEzeiIvPiYjeGE7ICAgIDxwYXRoIGZpbGw9IiM0MjQyNDIiIGQ9Ik0yNCw0Yy02LjEsMC0xMCw0LjktMTAsMTFjMCwwLjgsMCwyLjMsMCwyLjNsMiwxLjd2LTVsMTItNGw0LDR2NWwyLTEuN2MwLDAsMC0xLjUsMC0yLjNjMC00LTEtOC02LTlsLTEtMiBIMjR6Ii8+JiN4YTsgICAgPGcgZmlsbD0iIzc4NDcxOSI+JiN4YTsgICAgICAgIDxjaXJjbGUgY3g9IjI4IiBjeT0iMTkiIHI9IjEiLz4mI3hhOyAgICAgICAgPGNpcmNsZSBjeD0iMjAiIGN5PSIxOSIgcj0iMSIvPiYjeGE7ICAgIDwvZz4mI3hhOyAgICA8cG9seWdvbiBmaWxsPSIjZmZmIiBwb2ludHM9IjI0LDQzIDE5LDMxIDI0LDMyIDI5LDMxIi8+JiN4YTsgICAgPHBvbHlnb24gZmlsbD0iI0QzMkYyRiIgcG9pbnRzPSIyMywzNSAyMi4zLDM5LjUgMjQsNDMuNSAyNS43LDM5LjUgMjUsMzUgMjYsMzQgMjQsMzIgMjIsMzQiLz4mI3hhOyAgICA8cGF0aCBmaWxsPSIjNTQ2RTdBIiBkPSJNMjksMzFMMjksMzFsLTUsMTJsLTUtMTJjMCwwLTExLDItMTEsMTNoMzJDNDAsMzMsMjksMzEsMjksMzF6Ii8+JiN4YTs8L3N2Zz4=;labelBackgroundColor=#ffffff;" vertex="1" parent="1">
            <mxGeometry x="110" y="378" width="100" height="100" as="geometry" />
          </mxCell>
        </object>
        <mxCell id="9Pj_rUCR29dWIUh4K1ZW-17" value="" style="shape=ext;double=1;rounded=1;whiteSpace=wrap;html=1;fillColor=none;strokeColor=#0000FF;" vertex="1" parent="1">
          <mxGeometry x="80" y="50" width="330" height="600" as="geometry" />
        </mxCell>
        <mxCell id="9Pj_rUCR29dWIUh4K1ZW-19" value="&lt;h1 data-cur=&quot;cursor&quot; class=&quot;cs_cursor&quot;&gt;&lt;font data-cur=&quot;cursor&quot; class=&quot;cs_cursor&quot; color=&quot;#0000ff&quot;&gt;校园网环境&lt;br&gt;10.15.6.220&lt;br&gt;~&lt;br&gt;10.15.7.10&lt;/font&gt;&lt;/h1&gt;" style="rounded=0;whiteSpace=wrap;html=1;labelBorderColor=none;fillColor=none;strokeColor=none;" vertex="1" parent="1">
          <mxGeometry x="120" y="510" width="240" height="140" as="geometry" />
        </mxCell>
        <mxCell id="9Pj_rUCR29dWIUh4K1ZW-43" style="edgeStyle=orthogonalEdgeStyle;rounded=0;orthogonalLoop=1;jettySize=auto;html=1;exitX=1;exitY=0.5;exitDx=0;exitDy=0;entryX=1;entryY=0.5;entryDx=0;entryDy=0;" edge="1" parent="1" source="9Pj_rUCR29dWIUh4K1ZW-26" target="9Pj_rUCR29dWIUh4K1ZW-27">
          <mxGeometry relative="1" as="geometry" />
        </mxCell>
        <mxCell id="9Pj_rUCR29dWIUh4K1ZW-26" value="1&#39;s Private Area1" style="shape=image;verticalLabelPosition=bottom;verticalAlign=top;imageAspect=0;aspect=fixed;image=data:image/svg+xml,PHN2ZyB4bWxucz0iaHR0cDovL3d3dy53My5vcmcvMjAwMC9zdmciIHZlcnNpb249IjEiIHZpZXdCb3g9IjAgMCA0OCA0OCIgZW5hYmxlLWJhY2tncm91bmQ9Im5ldyAwIDAgNDggNDgiPiYjeGE7ICAgIDxyZWN0IHg9IjgiIHk9IjM5IiBmaWxsPSIjNDU1QTY0IiB3aWR0aD0iNiIgaGVpZ2h0PSIzIi8+JiN4YTsgICAgPHJlY3QgeD0iMzQiIHk9IjM5IiBmaWxsPSIjNDU1QTY0IiB3aWR0aD0iNiIgaGVpZ2h0PSIzIi8+JiN4YTsgICAgPHBhdGggZmlsbD0iIzc4OTA5QyIgZD0iTTQwLDQxSDhjLTIuMiwwLTQtMS44LTQtNFYxMWMwLTIuMiwxLjgtNCw0LTRoMzJjMi4yLDAsNCwxLjgsNCw0djI2QzQ0LDM5LjIsNDIuMiw0MSw0MCw0MXoiLz4mI3hhOyAgICA8cGF0aCBmaWxsPSIjOTBBNEFFIiBkPSJNNDAsMzhIOGMtMC42LDAtMS0wLjQtMS0xVjExYzAtMC42LDAuNC0xLDEtMWgzMmMwLjYsMCwxLDAuNCwxLDF2MjZDNDEsMzcuNiw0MC42LDM4LDQwLDM4eiIvPiYjeGE7ICAgIDxwYXRoIGZpbGw9IiMzNzQ3NEYiIGQ9Ik0yOSwxNGMtNS41LDAtMTAsNC41LTEwLDEwYzAsNS41LDQuNSwxMCwxMCwxMHMxMC00LjUsMTAtMTBDMzksMTguNSwzNC41LDE0LDI5LDE0eiBNMjksMzEgYy0zLjksMC03LTMuMS03LTdjMC0zLjksMy4xLTcsNy03czcsMy4xLDcsN0MzNiwyNy45LDMyLjksMzEsMjksMzF6Ii8+JiN4YTsgICAgPGcgZmlsbD0iI0IwQkVDNSI+JiN4YTsgICAgICAgIDxwYXRoIGQ9Ik0zNS4zLDE5LjFsMC40LTAuNGMwLjQtMC40LDAuNC0xLDAtMS40cy0xLTAuNC0xLjQsMGwtMC40LDAuNEMzNC40LDE4LjEsMzQuOSwxOC42LDM1LjMsMTkuMXoiLz4mI3hhOyAgICAgICAgPHBhdGggZD0iTTIyLjcsMTkuMWMwLjQtMC41LDAuOS0xLDEuNC0xLjRsLTAuNC0wLjRjLTAuNC0wLjQtMS0wLjQtMS40LDBzLTAuNCwxLDAsMS40TDIyLjcsMTkuMXoiLz4mI3hhOyAgICAgICAgPHBhdGggZD0iTTIxLDI0YzAtMC4zLDAtMC43LDAuMS0xaC0wLjZjLTAuNiwwLTEsMC40LTEsMXMwLjQsMSwxLDFoMC42QzIxLDI0LjcsMjEsMjQuMywyMSwyNHoiLz4mI3hhOyAgICAgICAgPHBhdGggZD0iTTI5LDE2YzAuMywwLDAuNywwLDEsMC4xdi0wLjZjMC0wLjYtMC40LTEtMS0xcy0xLDAuNC0xLDF2MC42QzI4LjMsMTYsMjguNywxNiwyOSwxNnoiLz4mI3hhOyAgICAgICAgPHBhdGggZD0iTTM1LjMsMjguOWMtMC40LDAuNS0wLjksMS0xLjQsMS40bDAuNCwwLjRjMC4yLDAuMiwwLjUsMC4zLDAuNywwLjNzMC41LTAuMSwwLjctMC4zYzAuNC0wLjQsMC40LTEsMC0xLjQgTDM1LjMsMjguOXoiLz4mI3hhOyAgICAgICAgPHBhdGggZD0iTTIyLjcsMjguOWwtMC40LDAuNGMtMC40LDAuNC0wLjQsMSwwLDEuNGMwLjIsMC4yLDAuNSwwLjMsMC43LDAuM3MwLjUtMC4xLDAuNy0wLjNsMC40LTAuNCBDMjMuNiwyOS45LDIzLjEsMjkuNCwyMi43LDI4Ljl6Ii8+JiN4YTsgICAgICAgIDxwYXRoIGQ9Ik0zNy41LDIzaC0wLjZjMCwwLjMsMC4xLDAuNywwLjEsMXMwLDAuNy0wLjEsMWgwLjZjMC42LDAsMS0wLjQsMS0xUzM4LjEsMjMsMzcuNSwyM3oiLz4mI3hhOyAgICAgICAgPHBhdGggZD0iTTI5LDMyYy0wLjMsMC0wLjcsMC0xLTAuMXYwLjZjMCwwLjYsMC40LDEsMSwxczEtMC40LDEtMXYtMC42QzI5LjcsMzIsMjkuMywzMiwyOSwzMnoiLz4mI3hhOyAgICA8L2c+JiN4YTsgICAgPHBhdGggZmlsbD0iIzQ1NUE2NCIgZD0iTTEyLDIwYy0xLjEsMC0yLDAuOS0yLDJ2OGMwLDEuMSwwLjksMiwyLDJzMi0wLjksMi0ydi04QzE0LDIwLjksMTMuMSwyMCwxMiwyMHoiLz4mI3hhOyAgICA8cGF0aCBmaWxsPSIjQ0ZEOERDIiBkPSJNMTIsMThjLTEuMSwwLTIsMC45LTIsMnY4YzAsMS4xLDAuOSwyLDIsMnMyLTAuOSwyLTJ2LThDMTQsMTguOSwxMy4xLDE4LDEyLDE4eiIvPiYjeGE7PC9zdmc+" vertex="1" parent="1">
          <mxGeometry x="877" y="10" width="100" height="100" as="geometry" />
        </mxCell>
        <mxCell id="9Pj_rUCR29dWIUh4K1ZW-45" style="edgeStyle=orthogonalEdgeStyle;rounded=0;orthogonalLoop=1;jettySize=auto;html=1;exitX=1;exitY=0.5;exitDx=0;exitDy=0;entryX=1;entryY=0.5;entryDx=0;entryDy=0;" edge="1" parent="1" source="9Pj_rUCR29dWIUh4K1ZW-27" target="9Pj_rUCR29dWIUh4K1ZW-26">
          <mxGeometry relative="1" as="geometry" />
        </mxCell>
        <mxCell id="9Pj_rUCR29dWIUh4K1ZW-46" style="edgeStyle=orthogonalEdgeStyle;rounded=0;orthogonalLoop=1;jettySize=auto;html=1;exitX=1;exitY=0.5;exitDx=0;exitDy=0;entryX=1;entryY=0.5;entryDx=0;entryDy=0;" edge="1" parent="1" source="9Pj_rUCR29dWIUh4K1ZW-27" target="9Pj_rUCR29dWIUh4K1ZW-28">
          <mxGeometry relative="1" as="geometry" />
        </mxCell>
        <mxCell id="9Pj_rUCR29dWIUh4K1ZW-27" value="1&#39;s Private Area2" style="shape=image;verticalLabelPosition=bottom;verticalAlign=top;imageAspect=0;aspect=fixed;image=data:image/svg+xml,PHN2ZyB4bWxucz0iaHR0cDovL3d3dy53My5vcmcvMjAwMC9zdmciIHZlcnNpb249IjEiIHZpZXdCb3g9IjAgMCA0OCA0OCIgZW5hYmxlLWJhY2tncm91bmQ9Im5ldyAwIDAgNDggNDgiPiYjeGE7ICAgIDxyZWN0IHg9IjgiIHk9IjM5IiBmaWxsPSIjNDU1QTY0IiB3aWR0aD0iNiIgaGVpZ2h0PSIzIi8+JiN4YTsgICAgPHJlY3QgeD0iMzQiIHk9IjM5IiBmaWxsPSIjNDU1QTY0IiB3aWR0aD0iNiIgaGVpZ2h0PSIzIi8+JiN4YTsgICAgPHBhdGggZmlsbD0iIzc4OTA5QyIgZD0iTTQwLDQxSDhjLTIuMiwwLTQtMS44LTQtNFYxMWMwLTIuMiwxLjgtNCw0LTRoMzJjMi4yLDAsNCwxLjgsNCw0djI2QzQ0LDM5LjIsNDIuMiw0MSw0MCw0MXoiLz4mI3hhOyAgICA8cGF0aCBmaWxsPSIjOTBBNEFFIiBkPSJNNDAsMzhIOGMtMC42LDAtMS0wLjQtMS0xVjExYzAtMC42LDAuNC0xLDEtMWgzMmMwLjYsMCwxLDAuNCwxLDF2MjZDNDEsMzcuNiw0MC42LDM4LDQwLDM4eiIvPiYjeGE7ICAgIDxwYXRoIGZpbGw9IiMzNzQ3NEYiIGQ9Ik0yOSwxNGMtNS41LDAtMTAsNC41LTEwLDEwYzAsNS41LDQuNSwxMCwxMCwxMHMxMC00LjUsMTAtMTBDMzksMTguNSwzNC41LDE0LDI5LDE0eiBNMjksMzEgYy0zLjksMC03LTMuMS03LTdjMC0zLjksMy4xLTcsNy03czcsMy4xLDcsN0MzNiwyNy45LDMyLjksMzEsMjksMzF6Ii8+JiN4YTsgICAgPGcgZmlsbD0iI0IwQkVDNSI+JiN4YTsgICAgICAgIDxwYXRoIGQ9Ik0zNS4zLDE5LjFsMC40LTAuNGMwLjQtMC40LDAuNC0xLDAtMS40cy0xLTAuNC0xLjQsMGwtMC40LDAuNEMzNC40LDE4LjEsMzQuOSwxOC42LDM1LjMsMTkuMXoiLz4mI3hhOyAgICAgICAgPHBhdGggZD0iTTIyLjcsMTkuMWMwLjQtMC41LDAuOS0xLDEuNC0xLjRsLTAuNC0wLjRjLTAuNC0wLjQtMS0wLjQtMS40LDBzLTAuNCwxLDAsMS40TDIyLjcsMTkuMXoiLz4mI3hhOyAgICAgICAgPHBhdGggZD0iTTIxLDI0YzAtMC4zLDAtMC43LDAuMS0xaC0wLjZjLTAuNiwwLTEsMC40LTEsMXMwLjQsMSwxLDFoMC42QzIxLDI0LjcsMjEsMjQuMywyMSwyNHoiLz4mI3hhOyAgICAgICAgPHBhdGggZD0iTTI5LDE2YzAuMywwLDAuNywwLDEsMC4xdi0wLjZjMC0wLjYtMC40LTEtMS0xcy0xLDAuNC0xLDF2MC42QzI4LjMsMTYsMjguNywxNiwyOSwxNnoiLz4mI3hhOyAgICAgICAgPHBhdGggZD0iTTM1LjMsMjguOWMtMC40LDAuNS0wLjksMS0xLjQsMS40bDAuNCwwLjRjMC4yLDAuMiwwLjUsMC4zLDAuNywwLjNzMC41LTAuMSwwLjctMC4zYzAuNC0wLjQsMC40LTEsMC0xLjQgTDM1LjMsMjguOXoiLz4mI3hhOyAgICAgICAgPHBhdGggZD0iTTIyLjcsMjguOWwtMC40LDAuNGMtMC40LDAuNC0wLjQsMSwwLDEuNGMwLjIsMC4yLDAuNSwwLjMsMC43LDAuM3MwLjUtMC4xLDAuNy0wLjNsMC40LTAuNCBDMjMuNiwyOS45LDIzLjEsMjkuNCwyMi43LDI4Ljl6Ii8+JiN4YTsgICAgICAgIDxwYXRoIGQ9Ik0zNy41LDIzaC0wLjZjMCwwLjMsMC4xLDAuNywwLjEsMXMwLDAuNy0wLjEsMWgwLjZjMC42LDAsMS0wLjQsMS0xUzM4LjEsMjMsMzcuNSwyM3oiLz4mI3hhOyAgICAgICAgPHBhdGggZD0iTTI5LDMyYy0wLjMsMC0wLjcsMC0xLTAuMXYwLjZjMCwwLjYsMC40LDEsMSwxczEtMC40LDEtMXYtMC42QzI5LjcsMzIsMjkuMywzMiwyOSwzMnoiLz4mI3hhOyAgICA8L2c+JiN4YTsgICAgPHBhdGggZmlsbD0iIzQ1NUE2NCIgZD0iTTEyLDIwYy0xLjEsMC0yLDAuOS0yLDJ2OGMwLDEuMSwwLjksMiwyLDJzMi0wLjksMi0ydi04QzE0LDIwLjksMTMuMSwyMCwxMiwyMHoiLz4mI3hhOyAgICA8cGF0aCBmaWxsPSIjQ0ZEOERDIiBkPSJNMTIsMThjLTEuMSwwLTIsMC45LTIsMnY4YzAsMS4xLDAuOSwyLDIsMnMyLTAuOSwyLTJ2LThDMTQsMTguOSwxMy4xLDE4LDEyLDE4eiIvPiYjeGE7PC9zdmc+" vertex="1" parent="1">
          <mxGeometry x="877" y="130" width="100" height="100" as="geometry" />
        </mxCell>
        <mxCell id="9Pj_rUCR29dWIUh4K1ZW-44" style="edgeStyle=orthogonalEdgeStyle;rounded=0;orthogonalLoop=1;jettySize=auto;html=1;exitX=1;exitY=0.5;exitDx=0;exitDy=0;entryX=1;entryY=0.5;entryDx=0;entryDy=0;" edge="1" parent="1" source="9Pj_rUCR29dWIUh4K1ZW-28" target="9Pj_rUCR29dWIUh4K1ZW-27">
          <mxGeometry relative="1" as="geometry" />
        </mxCell>
        <mxCell id="9Pj_rUCR29dWIUh4K1ZW-53" style="edgeStyle=orthogonalEdgeStyle;rounded=0;orthogonalLoop=1;jettySize=auto;html=1;exitX=1;exitY=0.5;exitDx=0;exitDy=0;entryX=1;entryY=0.5;entryDx=0;entryDy=0;" edge="1" parent="1" source="9Pj_rUCR29dWIUh4K1ZW-28" target="9Pj_rUCR29dWIUh4K1ZW-29">
          <mxGeometry relative="1" as="geometry" />
        </mxCell>
        <mxCell id="9Pj_rUCR29dWIUh4K1ZW-28" value="2&#39;s Private Area1" style="shape=image;verticalLabelPosition=bottom;verticalAlign=top;imageAspect=0;aspect=fixed;image=data:image/svg+xml,PHN2ZyB4bWxucz0iaHR0cDovL3d3dy53My5vcmcvMjAwMC9zdmciIHZlcnNpb249IjEiIHZpZXdCb3g9IjAgMCA0OCA0OCIgZW5hYmxlLWJhY2tncm91bmQ9Im5ldyAwIDAgNDggNDgiPiYjeGE7ICAgIDxyZWN0IHg9IjgiIHk9IjM5IiBmaWxsPSIjNDU1QTY0IiB3aWR0aD0iNiIgaGVpZ2h0PSIzIi8+JiN4YTsgICAgPHJlY3QgeD0iMzQiIHk9IjM5IiBmaWxsPSIjNDU1QTY0IiB3aWR0aD0iNiIgaGVpZ2h0PSIzIi8+JiN4YTsgICAgPHBhdGggZmlsbD0iIzc4OTA5QyIgZD0iTTQwLDQxSDhjLTIuMiwwLTQtMS44LTQtNFYxMWMwLTIuMiwxLjgtNCw0LTRoMzJjMi4yLDAsNCwxLjgsNCw0djI2QzQ0LDM5LjIsNDIuMiw0MSw0MCw0MXoiLz4mI3hhOyAgICA8cGF0aCBmaWxsPSIjOTBBNEFFIiBkPSJNNDAsMzhIOGMtMC42LDAtMS0wLjQtMS0xVjExYzAtMC42LDAuNC0xLDEtMWgzMmMwLjYsMCwxLDAuNCwxLDF2MjZDNDEsMzcuNiw0MC42LDM4LDQwLDM4eiIvPiYjeGE7ICAgIDxwYXRoIGZpbGw9IiMzNzQ3NEYiIGQ9Ik0yOSwxNGMtNS41LDAtMTAsNC41LTEwLDEwYzAsNS41LDQuNSwxMCwxMCwxMHMxMC00LjUsMTAtMTBDMzksMTguNSwzNC41LDE0LDI5LDE0eiBNMjksMzEgYy0zLjksMC03LTMuMS03LTdjMC0zLjksMy4xLTcsNy03czcsMy4xLDcsN0MzNiwyNy45LDMyLjksMzEsMjksMzF6Ii8+JiN4YTsgICAgPGcgZmlsbD0iI0IwQkVDNSI+JiN4YTsgICAgICAgIDxwYXRoIGQ9Ik0zNS4zLDE5LjFsMC40LTAuNGMwLjQtMC40LDAuNC0xLDAtMS40cy0xLTAuNC0xLjQsMGwtMC40LDAuNEMzNC40LDE4LjEsMzQuOSwxOC42LDM1LjMsMTkuMXoiLz4mI3hhOyAgICAgICAgPHBhdGggZD0iTTIyLjcsMTkuMWMwLjQtMC41LDAuOS0xLDEuNC0xLjRsLTAuNC0wLjRjLTAuNC0wLjQtMS0wLjQtMS40LDBzLTAuNCwxLDAsMS40TDIyLjcsMTkuMXoiLz4mI3hhOyAgICAgICAgPHBhdGggZD0iTTIxLDI0YzAtMC4zLDAtMC43LDAuMS0xaC0wLjZjLTAuNiwwLTEsMC40LTEsMXMwLjQsMSwxLDFoMC42QzIxLDI0LjcsMjEsMjQuMywyMSwyNHoiLz4mI3hhOyAgICAgICAgPHBhdGggZD0iTTI5LDE2YzAuMywwLDAuNywwLDEsMC4xdi0wLjZjMC0wLjYtMC40LTEtMS0xcy0xLDAuNC0xLDF2MC42QzI4LjMsMTYsMjguNywxNiwyOSwxNnoiLz4mI3hhOyAgICAgICAgPHBhdGggZD0iTTM1LjMsMjguOWMtMC40LDAuNS0wLjksMS0xLjQsMS40bDAuNCwwLjRjMC4yLDAuMiwwLjUsMC4zLDAuNywwLjNzMC41LTAuMSwwLjctMC4zYzAuNC0wLjQsMC40LTEsMC0xLjQgTDM1LjMsMjguOXoiLz4mI3hhOyAgICAgICAgPHBhdGggZD0iTTIyLjcsMjguOWwtMC40LDAuNGMtMC40LDAuNC0wLjQsMSwwLDEuNGMwLjIsMC4yLDAuNSwwLjMsMC43LDAuM3MwLjUtMC4xLDAuNy0wLjNsMC40LTAuNCBDMjMuNiwyOS45LDIzLjEsMjkuNCwyMi43LDI4Ljl6Ii8+JiN4YTsgICAgICAgIDxwYXRoIGQ9Ik0zNy41LDIzaC0wLjZjMCwwLjMsMC4xLDAuNywwLjEsMXMwLDAuNy0wLjEsMWgwLjZjMC42LDAsMS0wLjQsMS0xUzM4LjEsMjMsMzcuNSwyM3oiLz4mI3hhOyAgICAgICAgPHBhdGggZD0iTTI5LDMyYy0wLjMsMC0wLjcsMC0xLTAuMXYwLjZjMCwwLjYsMC40LDEsMSwxczEtMC40LDEtMXYtMC42QzI5LjcsMzIsMjkuMywzMiwyOSwzMnoiLz4mI3hhOyAgICA8L2c+JiN4YTsgICAgPHBhdGggZmlsbD0iIzQ1NUE2NCIgZD0iTTEyLDIwYy0xLjEsMC0yLDAuOS0yLDJ2OGMwLDEuMSwwLjksMiwyLDJzMi0wLjksMi0ydi04QzE0LDIwLjksMTMuMSwyMCwxMiwyMHoiLz4mI3hhOyAgICA8cGF0aCBmaWxsPSIjQ0ZEOERDIiBkPSJNMTIsMThjLTEuMSwwLTIsMC45LTIsMnY4YzAsMS4xLDAuOSwyLDIsMnMyLTAuOSwyLTJ2LThDMTQsMTguOSwxMy4xLDE4LDEyLDE4eiIvPiYjeGE7PC9zdmc+" vertex="1" parent="1">
          <mxGeometry x="875" y="238" width="102" height="102" as="geometry" />
        </mxCell>
        <mxCell id="9Pj_rUCR29dWIUh4K1ZW-55" style="edgeStyle=orthogonalEdgeStyle;rounded=0;orthogonalLoop=1;jettySize=auto;html=1;exitX=1;exitY=0.5;exitDx=0;exitDy=0;entryX=1;entryY=0.5;entryDx=0;entryDy=0;" edge="1" parent="1" source="9Pj_rUCR29dWIUh4K1ZW-29" target="9Pj_rUCR29dWIUh4K1ZW-30">
          <mxGeometry relative="1" as="geometry" />
        </mxCell>
        <mxCell id="9Pj_rUCR29dWIUh4K1ZW-29" value="2&#39;s Private Area2" style="shape=image;verticalLabelPosition=bottom;verticalAlign=top;imageAspect=0;aspect=fixed;image=data:image/svg+xml,PHN2ZyB4bWxucz0iaHR0cDovL3d3dy53My5vcmcvMjAwMC9zdmciIHZlcnNpb249IjEiIHZpZXdCb3g9IjAgMCA0OCA0OCIgZW5hYmxlLWJhY2tncm91bmQ9Im5ldyAwIDAgNDggNDgiPiYjeGE7ICAgIDxyZWN0IHg9IjgiIHk9IjM5IiBmaWxsPSIjNDU1QTY0IiB3aWR0aD0iNiIgaGVpZ2h0PSIzIi8+JiN4YTsgICAgPHJlY3QgeD0iMzQiIHk9IjM5IiBmaWxsPSIjNDU1QTY0IiB3aWR0aD0iNiIgaGVpZ2h0PSIzIi8+JiN4YTsgICAgPHBhdGggZmlsbD0iIzc4OTA5QyIgZD0iTTQwLDQxSDhjLTIuMiwwLTQtMS44LTQtNFYxMWMwLTIuMiwxLjgtNCw0LTRoMzJjMi4yLDAsNCwxLjgsNCw0djI2QzQ0LDM5LjIsNDIuMiw0MSw0MCw0MXoiLz4mI3hhOyAgICA8cGF0aCBmaWxsPSIjOTBBNEFFIiBkPSJNNDAsMzhIOGMtMC42LDAtMS0wLjQtMS0xVjExYzAtMC42LDAuNC0xLDEtMWgzMmMwLjYsMCwxLDAuNCwxLDF2MjZDNDEsMzcuNiw0MC42LDM4LDQwLDM4eiIvPiYjeGE7ICAgIDxwYXRoIGZpbGw9IiMzNzQ3NEYiIGQ9Ik0yOSwxNGMtNS41LDAtMTAsNC41LTEwLDEwYzAsNS41LDQuNSwxMCwxMCwxMHMxMC00LjUsMTAtMTBDMzksMTguNSwzNC41LDE0LDI5LDE0eiBNMjksMzEgYy0zLjksMC03LTMuMS03LTdjMC0zLjksMy4xLTcsNy03czcsMy4xLDcsN0MzNiwyNy45LDMyLjksMzEsMjksMzF6Ii8+JiN4YTsgICAgPGcgZmlsbD0iI0IwQkVDNSI+JiN4YTsgICAgICAgIDxwYXRoIGQ9Ik0zNS4zLDE5LjFsMC40LTAuNGMwLjQtMC40LDAuNC0xLDAtMS40cy0xLTAuNC0xLjQsMGwtMC40LDAuNEMzNC40LDE4LjEsMzQuOSwxOC42LDM1LjMsMTkuMXoiLz4mI3hhOyAgICAgICAgPHBhdGggZD0iTTIyLjcsMTkuMWMwLjQtMC41LDAuOS0xLDEuNC0xLjRsLTAuNC0wLjRjLTAuNC0wLjQtMS0wLjQtMS40LDBzLTAuNCwxLDAsMS40TDIyLjcsMTkuMXoiLz4mI3hhOyAgICAgICAgPHBhdGggZD0iTTIxLDI0YzAtMC4zLDAtMC43LDAuMS0xaC0wLjZjLTAuNiwwLTEsMC40LTEsMXMwLjQsMSwxLDFoMC42QzIxLDI0LjcsMjEsMjQuMywyMSwyNHoiLz4mI3hhOyAgICAgICAgPHBhdGggZD0iTTI5LDE2YzAuMywwLDAuNywwLDEsMC4xdi0wLjZjMC0wLjYtMC40LTEtMS0xcy0xLDAuNC0xLDF2MC42QzI4LjMsMTYsMjguNywxNiwyOSwxNnoiLz4mI3hhOyAgICAgICAgPHBhdGggZD0iTTM1LjMsMjguOWMtMC40LDAuNS0wLjksMS0xLjQsMS40bDAuNCwwLjRjMC4yLDAuMiwwLjUsMC4zLDAuNywwLjNzMC41LTAuMSwwLjctMC4zYzAuNC0wLjQsMC40LTEsMC0xLjQgTDM1LjMsMjguOXoiLz4mI3hhOyAgICAgICAgPHBhdGggZD0iTTIyLjcsMjguOWwtMC40LDAuNGMtMC40LDAuNC0wLjQsMSwwLDEuNGMwLjIsMC4yLDAuNSwwLjMsMC43LDAuM3MwLjUtMC4xLDAuNy0wLjNsMC40LTAuNCBDMjMuNiwyOS45LDIzLjEsMjkuNCwyMi43LDI4Ljl6Ii8+JiN4YTsgICAgICAgIDxwYXRoIGQ9Ik0zNy41LDIzaC0wLjZjMCwwLjMsMC4xLDAuNywwLjEsMXMwLDAuNy0wLjEsMWgwLjZjMC42LDAsMS0wLjQsMS0xUzM4LjEsMjMsMzcuNSwyM3oiLz4mI3hhOyAgICAgICAgPHBhdGggZD0iTTI5LDMyYy0wLjMsMC0wLjcsMC0xLTAuMXYwLjZjMCwwLjYsMC40LDEsMSwxczEtMC40LDEtMXYtMC42QzI5LjcsMzIsMjkuMywzMiwyOSwzMnoiLz4mI3hhOyAgICA8L2c+JiN4YTsgICAgPHBhdGggZmlsbD0iIzQ1NUE2NCIgZD0iTTEyLDIwYy0xLjEsMC0yLDAuOS0yLDJ2OGMwLDEuMSwwLjksMiwyLDJzMi0wLjksMi0ydi04QzE0LDIwLjksMTMuMSwyMCwxMiwyMHoiLz4mI3hhOyAgICA8cGF0aCBmaWxsPSIjQ0ZEOERDIiBkPSJNMTIsMThjLTEuMSwwLTIsMC45LTIsMnY4YzAsMS4xLDAuOSwyLDIsMnMyLTAuOSwyLTJ2LThDMTQsMTguOSwxMy4xLDE4LDEyLDE4eiIvPiYjeGE7PC9zdmc+" vertex="1" parent="1">
          <mxGeometry x="873" y="373" width="103" height="103" as="geometry" />
        </mxCell>
        <mxCell id="9Pj_rUCR29dWIUh4K1ZW-56" style="edgeStyle=orthogonalEdgeStyle;rounded=0;orthogonalLoop=1;jettySize=auto;html=1;exitX=1;exitY=0.5;exitDx=0;exitDy=0;entryX=1;entryY=0.5;entryDx=0;entryDy=0;" edge="1" parent="1" source="9Pj_rUCR29dWIUh4K1ZW-30" target="9Pj_rUCR29dWIUh4K1ZW-31">
          <mxGeometry relative="1" as="geometry" />
        </mxCell>
        <mxCell id="9Pj_rUCR29dWIUh4K1ZW-30" value="3&#39;s Private Area1" style="shape=image;verticalLabelPosition=bottom;verticalAlign=top;imageAspect=0;aspect=fixed;image=data:image/svg+xml,PHN2ZyB4bWxucz0iaHR0cDovL3d3dy53My5vcmcvMjAwMC9zdmciIHZlcnNpb249IjEiIHZpZXdCb3g9IjAgMCA0OCA0OCIgZW5hYmxlLWJhY2tncm91bmQ9Im5ldyAwIDAgNDggNDgiPiYjeGE7ICAgIDxyZWN0IHg9IjgiIHk9IjM5IiBmaWxsPSIjNDU1QTY0IiB3aWR0aD0iNiIgaGVpZ2h0PSIzIi8+JiN4YTsgICAgPHJlY3QgeD0iMzQiIHk9IjM5IiBmaWxsPSIjNDU1QTY0IiB3aWR0aD0iNiIgaGVpZ2h0PSIzIi8+JiN4YTsgICAgPHBhdGggZmlsbD0iIzc4OTA5QyIgZD0iTTQwLDQxSDhjLTIuMiwwLTQtMS44LTQtNFYxMWMwLTIuMiwxLjgtNCw0LTRoMzJjMi4yLDAsNCwxLjgsNCw0djI2QzQ0LDM5LjIsNDIuMiw0MSw0MCw0MXoiLz4mI3hhOyAgICA8cGF0aCBmaWxsPSIjOTBBNEFFIiBkPSJNNDAsMzhIOGMtMC42LDAtMS0wLjQtMS0xVjExYzAtMC42LDAuNC0xLDEtMWgzMmMwLjYsMCwxLDAuNCwxLDF2MjZDNDEsMzcuNiw0MC42LDM4LDQwLDM4eiIvPiYjeGE7ICAgIDxwYXRoIGZpbGw9IiMzNzQ3NEYiIGQ9Ik0yOSwxNGMtNS41LDAtMTAsNC41LTEwLDEwYzAsNS41LDQuNSwxMCwxMCwxMHMxMC00LjUsMTAtMTBDMzksMTguNSwzNC41LDE0LDI5LDE0eiBNMjksMzEgYy0zLjksMC03LTMuMS03LTdjMC0zLjksMy4xLTcsNy03czcsMy4xLDcsN0MzNiwyNy45LDMyLjksMzEsMjksMzF6Ii8+JiN4YTsgICAgPGcgZmlsbD0iI0IwQkVDNSI+JiN4YTsgICAgICAgIDxwYXRoIGQ9Ik0zNS4zLDE5LjFsMC40LTAuNGMwLjQtMC40LDAuNC0xLDAtMS40cy0xLTAuNC0xLjQsMGwtMC40LDAuNEMzNC40LDE4LjEsMzQuOSwxOC42LDM1LjMsMTkuMXoiLz4mI3hhOyAgICAgICAgPHBhdGggZD0iTTIyLjcsMTkuMWMwLjQtMC41LDAuOS0xLDEuNC0xLjRsLTAuNC0wLjRjLTAuNC0wLjQtMS0wLjQtMS40LDBzLTAuNCwxLDAsMS40TDIyLjcsMTkuMXoiLz4mI3hhOyAgICAgICAgPHBhdGggZD0iTTIxLDI0YzAtMC4zLDAtMC43LDAuMS0xaC0wLjZjLTAuNiwwLTEsMC40LTEsMXMwLjQsMSwxLDFoMC42QzIxLDI0LjcsMjEsMjQuMywyMSwyNHoiLz4mI3hhOyAgICAgICAgPHBhdGggZD0iTTI5LDE2YzAuMywwLDAuNywwLDEsMC4xdi0wLjZjMC0wLjYtMC40LTEtMS0xcy0xLDAuNC0xLDF2MC42QzI4LjMsMTYsMjguNywxNiwyOSwxNnoiLz4mI3hhOyAgICAgICAgPHBhdGggZD0iTTM1LjMsMjguOWMtMC40LDAuNS0wLjksMS0xLjQsMS40bDAuNCwwLjRjMC4yLDAuMiwwLjUsMC4zLDAuNywwLjNzMC41LTAuMSwwLjctMC4zYzAuNC0wLjQsMC40LTEsMC0xLjQgTDM1LjMsMjguOXoiLz4mI3hhOyAgICAgICAgPHBhdGggZD0iTTIyLjcsMjguOWwtMC40LDAuNGMtMC40LDAuNC0wLjQsMSwwLDEuNGMwLjIsMC4yLDAuNSwwLjMsMC43LDAuM3MwLjUtMC4xLDAuNy0wLjNsMC40LTAuNCBDMjMuNiwyOS45LDIzLjEsMjkuNCwyMi43LDI4Ljl6Ii8+JiN4YTsgICAgICAgIDxwYXRoIGQ9Ik0zNy41LDIzaC0wLjZjMCwwLjMsMC4xLDAuNywwLjEsMXMwLDAuNy0wLjEsMWgwLjZjMC42LDAsMS0wLjQsMS0xUzM4LjEsMjMsMzcuNSwyM3oiLz4mI3hhOyAgICAgICAgPHBhdGggZD0iTTI5LDMyYy0wLjMsMC0wLjcsMC0xLTAuMXYwLjZjMCwwLjYsMC40LDEsMSwxczEtMC40LDEtMXYtMC42QzI5LjcsMzIsMjkuMywzMiwyOSwzMnoiLz4mI3hhOyAgICA8L2c+JiN4YTsgICAgPHBhdGggZmlsbD0iIzQ1NUE2NCIgZD0iTTEyLDIwYy0xLjEsMC0yLDAuOS0yLDJ2OGMwLDEuMSwwLjksMiwyLDJzMi0wLjksMi0ydi04QzE0LDIwLjksMTMuMSwyMCwxMiwyMHoiLz4mI3hhOyAgICA8cGF0aCBmaWxsPSIjQ0ZEOERDIiBkPSJNMTIsMThjLTEuMSwwLTIsMC45LTIsMnY4YzAsMS4xLDAuOSwyLDIsMnMyLTAuOSwyLTJ2LThDMTQsMTguOSwxMy4xLDE4LDEyLDE4eiIvPiYjeGE7PC9zdmc+" vertex="1" parent="1">
          <mxGeometry x="874" y="490" width="102" height="102" as="geometry" />
        </mxCell>
        <mxCell id="9Pj_rUCR29dWIUh4K1ZW-31" value="3&#39;s Private Area2" style="shape=image;verticalLabelPosition=bottom;verticalAlign=top;imageAspect=0;aspect=fixed;image=data:image/svg+xml,PHN2ZyB4bWxucz0iaHR0cDovL3d3dy53My5vcmcvMjAwMC9zdmciIHZlcnNpb249IjEiIHZpZXdCb3g9IjAgMCA0OCA0OCIgZW5hYmxlLWJhY2tncm91bmQ9Im5ldyAwIDAgNDggNDgiPiYjeGE7ICAgIDxyZWN0IHg9IjgiIHk9IjM5IiBmaWxsPSIjNDU1QTY0IiB3aWR0aD0iNiIgaGVpZ2h0PSIzIi8+JiN4YTsgICAgPHJlY3QgeD0iMzQiIHk9IjM5IiBmaWxsPSIjNDU1QTY0IiB3aWR0aD0iNiIgaGVpZ2h0PSIzIi8+JiN4YTsgICAgPHBhdGggZmlsbD0iIzc4OTA5QyIgZD0iTTQwLDQxSDhjLTIuMiwwLTQtMS44LTQtNFYxMWMwLTIuMiwxLjgtNCw0LTRoMzJjMi4yLDAsNCwxLjgsNCw0djI2QzQ0LDM5LjIsNDIuMiw0MSw0MCw0MXoiLz4mI3hhOyAgICA8cGF0aCBmaWxsPSIjOTBBNEFFIiBkPSJNNDAsMzhIOGMtMC42LDAtMS0wLjQtMS0xVjExYzAtMC42LDAuNC0xLDEtMWgzMmMwLjYsMCwxLDAuNCwxLDF2MjZDNDEsMzcuNiw0MC42LDM4LDQwLDM4eiIvPiYjeGE7ICAgIDxwYXRoIGZpbGw9IiMzNzQ3NEYiIGQ9Ik0yOSwxNGMtNS41LDAtMTAsNC41LTEwLDEwYzAsNS41LDQuNSwxMCwxMCwxMHMxMC00LjUsMTAtMTBDMzksMTguNSwzNC41LDE0LDI5LDE0eiBNMjksMzEgYy0zLjksMC03LTMuMS03LTdjMC0zLjksMy4xLTcsNy03czcsMy4xLDcsN0MzNiwyNy45LDMyLjksMzEsMjksMzF6Ii8+JiN4YTsgICAgPGcgZmlsbD0iI0IwQkVDNSI+JiN4YTsgICAgICAgIDxwYXRoIGQ9Ik0zNS4zLDE5LjFsMC40LTAuNGMwLjQtMC40LDAuNC0xLDAtMS40cy0xLTAuNC0xLjQsMGwtMC40LDAuNEMzNC40LDE4LjEsMzQuOSwxOC42LDM1LjMsMTkuMXoiLz4mI3hhOyAgICAgICAgPHBhdGggZD0iTTIyLjcsMTkuMWMwLjQtMC41LDAuOS0xLDEuNC0xLjRsLTAuNC0wLjRjLTAuNC0wLjQtMS0wLjQtMS40LDBzLTAuNCwxLDAsMS40TDIyLjcsMTkuMXoiLz4mI3hhOyAgICAgICAgPHBhdGggZD0iTTIxLDI0YzAtMC4zLDAtMC43LDAuMS0xaC0wLjZjLTAuNiwwLTEsMC40LTEsMXMwLjQsMSwxLDFoMC42QzIxLDI0LjcsMjEsMjQuMywyMSwyNHoiLz4mI3hhOyAgICAgICAgPHBhdGggZD0iTTI5LDE2YzAuMywwLDAuNywwLDEsMC4xdi0wLjZjMC0wLjYtMC40LTEtMS0xcy0xLDAuNC0xLDF2MC42QzI4LjMsMTYsMjguNywxNiwyOSwxNnoiLz4mI3hhOyAgICAgICAgPHBhdGggZD0iTTM1LjMsMjguOWMtMC40LDAuNS0wLjksMS0xLjQsMS40bDAuNCwwLjRjMC4yLDAuMiwwLjUsMC4zLDAuNywwLjNzMC41LTAuMSwwLjctMC4zYzAuNC0wLjQsMC40LTEsMC0xLjQgTDM1LjMsMjguOXoiLz4mI3hhOyAgICAgICAgPHBhdGggZD0iTTIyLjcsMjguOWwtMC40LDAuNGMtMC40LDAuNC0wLjQsMSwwLDEuNGMwLjIsMC4yLDAuNSwwLjMsMC43LDAuM3MwLjUtMC4xLDAuNy0wLjNsMC40LTAuNCBDMjMuNiwyOS45LDIzLjEsMjkuNCwyMi43LDI4Ljl6Ii8+JiN4YTsgICAgICAgIDxwYXRoIGQ9Ik0zNy41LDIzaC0wLjZjMCwwLjMsMC4xLDAuNywwLjEsMXMwLDAuNy0wLjEsMWgwLjZjMC42LDAsMS0wLjQsMS0xUzM4LjEsMjMsMzcuNSwyM3oiLz4mI3hhOyAgICAgICAgPHBhdGggZD0iTTI5LDMyYy0wLjMsMC0wLjcsMC0xLTAuMXYwLjZjMCwwLjYsMC40LDEsMSwxczEtMC40LDEtMXYtMC42QzI5LjcsMzIsMjkuMywzMiwyOSwzMnoiLz4mI3hhOyAgICA8L2c+JiN4YTsgICAgPHBhdGggZmlsbD0iIzQ1NUE2NCIgZD0iTTEyLDIwYy0xLjEsMC0yLDAuOS0yLDJ2OGMwLDEuMSwwLjksMiwyLDJzMi0wLjksMi0ydi04QzE0LDIwLjksMTMuMSwyMCwxMiwyMHoiLz4mI3hhOyAgICA8cGF0aCBmaWxsPSIjQ0ZEOERDIiBkPSJNMTIsMThjLTEuMSwwLTIsMC45LTIsMnY4YzAsMS4xLDAuOSwyLDIsMnMyLTAuOSwyLTJ2LThDMTQsMTguOSwxMy4xLDE4LDEyLDE4eiIvPiYjeGE7PC9zdmc+" vertex="1" parent="1">
          <mxGeometry x="875" y="610" width="100" height="100" as="geometry" />
        </mxCell>
        <mxCell id="9Pj_rUCR29dWIUh4K1ZW-32" value="" style="endArrow=none;dashed=1;html=1;dashPattern=1 3;strokeWidth=2;rounded=0;" edge="1" parent="1">
          <mxGeometry width="50" height="50" relative="1" as="geometry">
            <mxPoint x="420" y="170" as="sourcePoint" />
            <mxPoint x="860" y="90" as="targetPoint" />
            <Array as="points">
              <mxPoint x="550" y="190" />
              <mxPoint x="660" y="190" />
              <mxPoint x="760" y="160" />
            </Array>
          </mxGeometry>
        </mxCell>
        <mxCell id="9Pj_rUCR29dWIUh4K1ZW-33" value="" style="shape=image;verticalLabelPosition=bottom;verticalAlign=top;imageAspect=0;aspect=fixed;image=data:image/svg+xml,PHN2ZyB4bWxucz0iaHR0cDovL3d3dy53My5vcmcvMjAwMC9zdmciIHZlcnNpb249IjEiIHZpZXdCb3g9IjAgMCA0OCA0OCIgZW5hYmxlLWJhY2tncm91bmQ9Im5ldyAwIDAgNDggNDgiPiYjeGE7ICAgIDxjaXJjbGUgZmlsbD0iIzRDQUY1MCIgY3g9IjI0IiBjeT0iMjQiIHI9IjIxIi8+JiN4YTsgICAgPHBvbHlnb24gZmlsbD0iI0NDRkY5MCIgcG9pbnRzPSIzNC42LDE0LjYgMjEsMjguMiAxNS40LDIyLjYgMTIuNiwyNS40IDIxLDMzLjggMzcuNCwxNy40Ii8+JiN4YTs8L3N2Zz4=" vertex="1" parent="1">
          <mxGeometry x="735" y="140" width="48" height="48" as="geometry" />
        </mxCell>
        <mxCell id="9Pj_rUCR29dWIUh4K1ZW-34" value="" style="endArrow=none;dashed=1;html=1;dashPattern=1 3;strokeWidth=2;rounded=0;" edge="1" parent="1">
          <mxGeometry width="50" height="50" relative="1" as="geometry">
            <mxPoint x="420" y="180" as="sourcePoint" />
            <mxPoint x="870" y="430" as="targetPoint" />
            <Array as="points">
              <mxPoint x="430" y="310" />
              <mxPoint x="490" y="380" />
              <mxPoint x="620" y="450" />
              <mxPoint x="740" y="450" />
            </Array>
          </mxGeometry>
        </mxCell>
        <mxCell id="9Pj_rUCR29dWIUh4K1ZW-36" value="" style="shape=image;verticalLabelPosition=bottom;verticalAlign=top;imageAspect=0;aspect=fixed;image=data:image/svg+xml,PHN2ZyB4bWxucz0iaHR0cDovL3d3dy53My5vcmcvMjAwMC9zdmciIHZlcnNpb249IjEiIHZpZXdCb3g9IjAgMCA0OCA0OCIgZW5hYmxlLWJhY2tncm91bmQ9Im5ldyAwIDAgNDggNDgiPiYjeGE7ICAgIDxwYXRoIGZpbGw9IiNGNDQzMzYiIGQ9Ik0yMS4yLDQ0LjhsLTE4LTE4Yy0xLjYtMS42LTEuNi00LjEsMC01LjdsMTgtMThjMS42LTEuNiw0LjEtMS42LDUuNywwbDE4LDE4YzEuNiwxLjYsMS42LDQuMSwwLDUuN2wtMTgsMTggQzI1LjMsNDYuNCwyMi43LDQ2LjQsMjEuMiw0NC44eiIvPiYjeGE7ICAgIDxwYXRoIGZpbGw9IiNmZmYiIGQ9Ik0yMS42LDMyLjdjMC0wLjMsMC4xLTAuNiwwLjItMC45YzAuMS0wLjMsMC4zLTAuNSwwLjUtMC43YzAuMi0wLjIsMC41LTAuNCwwLjgtMC41czAuNi0wLjIsMS0wLjIgczAuNywwLjEsMSwwLjJjMC4zLDAuMSwwLjYsMC4zLDAuOCwwLjVjMC4yLDAuMiwwLjQsMC40LDAuNSwwLjdjMC4xLDAuMywwLjIsMC42LDAuMiwwLjlzLTAuMSwwLjYtMC4yLDAuOXMtMC4zLDAuNS0wLjUsMC43IGMtMC4yLDAuMi0wLjUsMC40LTAuOCwwLjVjLTAuMywwLjEtMC42LDAuMi0xLDAuMnMtMC43LTAuMS0xLTAuMnMtMC41LTAuMy0wLjgtMC41Yy0wLjItMC4yLTAuNC0wLjQtMC41LTAuN1MyMS42LDMzLjEsMjEuNiwzMi43eiBNMjUuOCwyOC4xaC0zLjZMMjEuNywxM2g0LjZMMjUuOCwyOC4xeiIvPiYjeGE7PC9zdmc+" vertex="1" parent="1">
          <mxGeometry x="735" y="420" width="48" height="48" as="geometry" />
        </mxCell>
        <mxCell id="9Pj_rUCR29dWIUh4K1ZW-37" value="" style="shape=ext;double=1;rounded=1;whiteSpace=wrap;html=1;fillColor=none;strokeColor=#FF0000;" vertex="1" parent="1">
          <mxGeometry x="270" y="30" width="523" height="510" as="geometry" />
        </mxCell>
        <mxCell id="9Pj_rUCR29dWIUh4K1ZW-40" value="&lt;h1 data-cur=&quot;cursor&quot; class=&quot;cs_cursor&quot;&gt;&lt;font data-cur=&quot;cursor&quot; class=&quot;cs_cursor&quot;&gt;&lt;font data-cur=&quot;cursor&quot; class=&quot;cs_cursor&quot; color=&quot;#ff0000&quot;&gt;攻击外网&lt;br&gt;172.17.xxx.xxx&lt;/font&gt;&lt;br&gt;&lt;/font&gt;&lt;/h1&gt;" style="rounded=0;whiteSpace=wrap;html=1;labelBorderColor=none;fillColor=none;strokeColor=none;" vertex="1" parent="1">
          <mxGeometry x="378.5" y="20" width="240" height="140" as="geometry" />
        </mxCell>
        <mxCell id="9Pj_rUCR29dWIUh4K1ZW-63" value="" style="shape=ext;double=1;rounded=1;whiteSpace=wrap;html=1;fillColor=none;strokeColor=#E5CCFF;" vertex="1" parent="1">
          <mxGeometry x="590" y="10" width="490" height="759.5" as="geometry" />
        </mxCell>
        <mxCell id="9Pj_rUCR29dWIUh4K1ZW-64" value="&lt;h1 data-cur=&quot;cursor&quot; class=&quot;cs_cursor&quot;&gt;&lt;font data-cur=&quot;cursor&quot; class=&quot;cs_cursor&quot;&gt;&lt;font color=&quot;#e5ccff&quot; data-cur=&quot;cursor&quot; class=&quot;cs_cursor&quot;&gt;攻击内网&lt;/font&gt;&lt;/font&gt;&lt;/h1&gt;&lt;h1 data-cur=&quot;cursor&quot; class=&quot;cs_cursor&quot;&gt;&lt;font data-cur=&quot;cursor&quot; class=&quot;cs_cursor&quot;&gt;&lt;font color=&quot;#e5ccff&quot; data-cur=&quot;cursor&quot; class=&quot;cs_cursor&quot;&gt;192.168.xxx.xxx&lt;/font&gt;&lt;br&gt;&lt;/font&gt;&lt;/h1&gt;" style="rounded=0;whiteSpace=wrap;html=1;labelBorderColor=none;fillColor=none;strokeColor=none;" vertex="1" parent="1">
          <mxGeometry x="580" y="590" width="240" height="140" as="geometry" />
        </mxCell>
      </root>
    </mxGraphModel>
  </diagram>
</mxfile>
